<svg xmlns="http://www.w3.org/2000/svg" xmlns:xlink="http://www.w3.org/1999/xlink" width="500" zoomAndPan="magnify" viewBox="0 0 375 374.999991" height="500" preserveAspectRatio="xMidYMid meet" version="1.0"><defs><g/><clipPath id="16a06721e3"><path d="M 37.628906 44.644531 L 337.988281 44.644531 L 337.988281 345 L 37.628906 345 Z M 37.628906 44.644531 " clip-rule="nonzero"/></clipPath><clipPath id="7437f99a73"><path d="M 187.628906 344.644531 C 147.578125 344.644531 109.871094 329.054688 81.574219 300.699219 C 53.214844 272.402344 37.628906 234.691406 37.628906 194.644531 C 37.628906 154.597656 53.214844 116.886719 81.574219 88.589844 C 109.871094 60.230469 147.578125 44.644531 187.628906 44.644531 C 227.675781 44.644531 265.386719 60.230469 293.683594 88.589844 C 322.039062 116.945312 337.628906 154.597656 337.628906 194.644531 C 337.628906 234.691406 322.039062 272.402344 293.683594 300.699219 C 265.386719 329.054688 227.675781 344.644531 187.628906 344.644531 M 187.628906 53.636719 C 149.976562 53.636719 114.546875 68.324219 87.925781 94.945312 C 61.308594 121.5625 46.621094 156.996094 46.621094 194.644531 C 46.621094 232.292969 61.308594 267.726562 87.925781 294.34375 C 114.546875 320.964844 149.976562 335.652344 187.628906 335.652344 C 225.277344 335.652344 260.710938 320.964844 287.328125 294.34375 C 313.945312 267.726562 328.636719 232.292969 328.636719 194.644531 C 328.636719 156.996094 313.945312 121.5625 287.328125 94.945312 C 260.710938 68.324219 225.277344 53.636719 187.628906 53.636719 " clip-rule="nonzero"/></clipPath></defs><g clip-path="url(#16a06721e3)"><g clip-path="url(#7437f99a73)"><path fill="#000000" d="M 37.628906 44.644531 L 337.386719 44.644531 L 337.386719 344.40625 L 37.628906 344.40625 Z M 37.628906 44.644531 " fill-opacity="1" fill-rule="nonzero"/></g></g><g fill="#000000" fill-opacity="1"><g transform="translate(68.8618, 199.499987)"><g><path d="M 11.25 0.421875 C 16.679688 0.421875 19.828125 -2.609375 19.828125 -9.988281 L 19.828125 -22.199219 L 15.570312 -22.199219 L 15.570312 -9.601562 C 15.570312 -4.980469 13.890625 -3.421875 11.25 -3.421875 C 8.640625 -3.421875 7.050781 -4.980469 7.050781 -9.601562 L 7.050781 -22.199219 L 2.609375 -22.199219 L 2.609375 -9.988281 C 2.609375 -2.609375 5.851562 0.421875 11.25 0.421875 Z M 11.25 0.421875 "/></g></g></g><g fill="#000000" fill-opacity="1"><g transform="translate(93.401774, 199.499987)"><g><path d="M 2.730469 0 L 6.929688 0 L 6.929688 -8.910156 C 6.929688 -11.460938 6.601562 -14.25 6.390625 -16.648438 L 6.539062 -16.648438 L 8.789062 -11.878906 L 15.210938 0 L 19.710938 0 L 19.710938 -22.199219 L 15.511719 -22.199219 L 15.511719 -13.351562 C 15.511719 -10.828125 15.839844 -7.890625 16.078125 -5.578125 L 15.929688 -5.578125 L 13.710938 -10.378906 L 7.261719 -22.199219 L 2.730469 -22.199219 Z M 2.730469 0 "/></g></g></g><g fill="#000000" fill-opacity="1"><g transform="translate(117.971754, 199.499987)"><g><path d="M 2.730469 0 L 7.171875 0 L 7.171875 -22.199219 L 2.730469 -22.199219 Z M 2.730469 0 "/></g></g></g><g fill="#000000" fill-opacity="1"><g transform="translate(129.971741, 199.499987)"><g><path d="M 7.140625 0 L 11.578125 0 L 11.578125 -18.511719 L 17.878906 -18.511719 L 17.878906 -22.199219 L 0.898438 -22.199219 L 0.898438 -18.511719 L 7.140625 -18.511719 Z M 7.140625 0 "/></g></g></g><g fill="#000000" fill-opacity="1"><g transform="translate(150.821714, 199.499987)"><g><path d="M 2.730469 0 L 7.171875 0 L 7.171875 -9 L 15.058594 -9 L 15.058594 -12.71875 L 7.171875 -12.71875 L 7.171875 -18.511719 L 16.410156 -18.511719 L 16.410156 -22.199219 L 2.730469 -22.199219 Z M 2.730469 0 "/></g></g></g><g fill="#000000" fill-opacity="1"><g transform="translate(170.471699, 199.499987)"><g><path d="M 2.730469 0 L 7.171875 0 L 7.171875 -22.199219 L 2.730469 -22.199219 Z M 2.730469 0 "/></g></g></g><g fill="#000000" fill-opacity="1"><g transform="translate(182.471687, 199.499987)"><g><path d="M 11.789062 0.421875 C 14.671875 0.421875 17.039062 -0.71875 18.871094 -2.851562 L 16.53125 -5.609375 C 15.328125 -4.320312 13.828125 -3.421875 11.941406 -3.421875 C 8.429688 -3.421875 6.148438 -6.328125 6.148438 -11.160156 C 6.148438 -15.929688 8.671875 -18.808594 12.03125 -18.808594 C 13.710938 -18.808594 15 -18.03125 16.109375 -16.949219 L 18.449219 -19.769531 C 17.011719 -21.269531 14.761719 -22.621094 11.941406 -22.621094 C 6.328125 -22.621094 1.621094 -18.328125 1.621094 -11.011719 C 1.621094 -3.601562 6.179688 0.421875 11.789062 0.421875 Z M 11.789062 0.421875 "/></g></g></g><g fill="#000000" fill-opacity="1"><g transform="translate(204.281663, 199.499987)"><g><path d="M 6.898438 -9.148438 L 7.558594 -11.578125 C 8.21875 -13.890625 8.878906 -16.410156 9.449219 -18.839844 L 9.570312 -18.839844 C 10.230469 -16.441406 10.828125 -13.890625 11.519531 -11.578125 L 12.179688 -9.148438 Z M 14.699219 0 L 19.351562 0 L 12.210938 -22.199219 L 6.988281 -22.199219 L -0.121094 0 L 4.378906 0 L 5.941406 -5.699219 L 13.140625 -5.699219 Z M 14.699219 0 "/></g></g></g><g fill="#000000" fill-opacity="1"><g transform="translate(225.611641, 199.499987)"><g><path d="M 7.140625 0 L 11.578125 0 L 11.578125 -18.511719 L 17.878906 -18.511719 L 17.878906 -22.199219 L 0.898438 -22.199219 L 0.898438 -18.511719 L 7.140625 -18.511719 Z M 7.140625 0 "/></g></g></g><g fill="#000000" fill-opacity="1"><g transform="translate(246.461619, 199.499987)"><g><path d="M 2.730469 0 L 7.171875 0 L 7.171875 -22.199219 L 2.730469 -22.199219 Z M 2.730469 0 "/></g></g></g><g fill="#000000" fill-opacity="1"><g transform="translate(258.461607, 199.499987)"><g><path d="M 11.550781 0.421875 C 17.429688 0.421875 21.480469 -3.988281 21.480469 -11.191406 C 21.480469 -18.390625 17.429688 -22.621094 11.550781 -22.621094 C 5.671875 -22.621094 1.621094 -18.421875 1.621094 -11.191406 C 1.621094 -3.988281 5.671875 0.421875 11.550781 0.421875 Z M 11.550781 -3.421875 C 8.25 -3.421875 6.148438 -6.449219 6.148438 -11.191406 C 6.148438 -15.960938 8.25 -18.808594 11.550781 -18.808594 C 14.851562 -18.808594 16.949219 -15.960938 16.949219 -11.191406 C 16.949219 -6.449219 14.851562 -3.421875 11.550781 -3.421875 Z M 11.550781 -3.421875 "/></g></g></g><g fill="#000000" fill-opacity="1"><g transform="translate(283.661576, 199.499987)"><g><path d="M 2.730469 0 L 6.929688 0 L 6.929688 -8.910156 C 6.929688 -11.460938 6.601562 -14.25 6.390625 -16.648438 L 6.539062 -16.648438 L 8.789062 -11.878906 L 15.210938 0 L 19.710938 0 L 19.710938 -22.199219 L 15.511719 -22.199219 L 15.511719 -13.351562 C 15.511719 -10.828125 15.839844 -7.890625 16.078125 -5.578125 L 15.929688 -5.578125 L 13.710938 -10.378906 L 7.261719 -22.199219 L 2.730469 -22.199219 Z M 2.730469 0 "/></g></g></g></svg>